<mxfile host="app.diagrams.net" modified="2023-06-23T20:42:10.559Z" agent="Mozilla/5.0 (Windows NT 10.0; Win64; x64) AppleWebKit/537.36 (KHTML, like Gecko) Chrome/114.0.0.0 Safari/537.36" etag="QyF8iVElm_JoZAlbKIex" version="21.4.0" pages="2">
  <diagram id="C5RBs43oDa-KdzZeNtuy" name="Page-1">
    <mxGraphModel dx="1050" dy="627" grid="1" gridSize="10" guides="1" tooltips="1" connect="1" arrows="1" fold="1" page="1" pageScale="1" pageWidth="1169" pageHeight="827" math="0" shadow="0">
      <root>
        <mxCell id="WIyWlLk6GJQsqaUBKTNV-0" />
        <mxCell id="WIyWlLk6GJQsqaUBKTNV-1" parent="WIyWlLk6GJQsqaUBKTNV-0" />
        <mxCell id="FMd9MbEWiYony1QI66Ri-48" value="Cargo" style="swimlane;fontStyle=0;childLayout=stackLayout;horizontal=1;startSize=26;horizontalStack=0;resizeParent=1;resizeParentMax=0;resizeLast=0;collapsible=1;marginBottom=0;whiteSpace=wrap;html=1;fontFamily=Helvetica;fontSize=12;shadow=0;strokeColor=#6C8EBF;fillColor=#a6c6f2;rounded=1;glass=0;" parent="WIyWlLk6GJQsqaUBKTNV-1" vertex="1">
          <mxGeometry x="790" y="324" width="140" height="224" as="geometry" />
        </mxCell>
        <mxCell id="FMd9MbEWiYony1QI66Ri-49" value="- titulo: str" style="text;align=left;verticalAlign=top;spacingLeft=4;spacingRight=4;overflow=hidden;rotatable=0;points=[[0,0.5],[1,0.5]];portConstraint=eastwest;whiteSpace=wrap;html=1;fontSize=12;fontFamily=Helvetica;strokeColor=none;fillColor=#e8f0fd;rounded=1;" parent="FMd9MbEWiYony1QI66Ri-48" vertex="1">
          <mxGeometry y="26" width="140" height="26" as="geometry" />
        </mxCell>
        <mxCell id="FMd9MbEWiYony1QI66Ri-50" value="- salario: float" style="text;align=left;verticalAlign=top;spacingLeft=4;spacingRight=4;overflow=hidden;rotatable=0;points=[[0,0.5],[1,0.5]];portConstraint=eastwest;whiteSpace=wrap;html=1;fontSize=12;fontFamily=Helvetica;strokeColor=none;fillColor=#e8f0fd;rounded=1;" parent="FMd9MbEWiYony1QI66Ri-48" vertex="1">
          <mxGeometry y="52" width="140" height="26" as="geometry" />
        </mxCell>
        <mxCell id="dxM63xS1KSjtT52cdp6n-24" value="" style="line;html=1;strokeWidth=1;align=left;verticalAlign=middle;spacingTop=-1;spacingLeft=3;spacingRight=3;rotatable=0;labelPosition=right;points=[];portConstraint=eastwest;dashed=1;strokeColor=none;fillColor=#F6EDFC;rounded=1;" parent="FMd9MbEWiYony1QI66Ri-48" vertex="1">
          <mxGeometry y="78" width="140" height="8" as="geometry" />
        </mxCell>
        <mxCell id="dxM63xS1KSjtT52cdp6n-25" value="- __init__(titulo, salario)" style="text;align=left;verticalAlign=top;spacingLeft=4;spacingRight=4;overflow=hidden;rotatable=0;points=[[0,0.5],[1,0.5]];portConstraint=eastwest;strokeColor=none;fillColor=#dae8fc;rounded=1;" parent="FMd9MbEWiYony1QI66Ri-48" vertex="1">
          <mxGeometry y="86" width="140" height="34" as="geometry" />
        </mxCell>
        <mxCell id="dxM63xS1KSjtT52cdp6n-26" value="- titulo()" style="text;align=left;verticalAlign=top;spacingLeft=4;spacingRight=4;overflow=hidden;rotatable=0;points=[[0,0.5],[1,0.5]];portConstraint=eastwest;whiteSpace=wrap;html=1;fontSize=12;fontFamily=Helvetica;strokeColor=none;fillColor=#dae8fc;rounded=1;" parent="FMd9MbEWiYony1QI66Ri-48" vertex="1">
          <mxGeometry y="120" width="140" height="26" as="geometry" />
        </mxCell>
        <mxCell id="dxM63xS1KSjtT52cdp6n-27" value="- titulo(str)" style="text;align=left;verticalAlign=top;spacingLeft=4;spacingRight=4;overflow=hidden;rotatable=0;points=[[0,0.5],[1,0.5]];portConstraint=eastwest;whiteSpace=wrap;html=1;fontSize=12;fontFamily=Helvetica;strokeColor=none;fillColor=#dae8fc;rounded=1;" parent="FMd9MbEWiYony1QI66Ri-48" vertex="1">
          <mxGeometry y="146" width="140" height="26" as="geometry" />
        </mxCell>
        <mxCell id="dxM63xS1KSjtT52cdp6n-28" value="- salario()" style="text;align=left;verticalAlign=top;spacingLeft=4;spacingRight=4;overflow=hidden;rotatable=0;points=[[0,0.5],[1,0.5]];portConstraint=eastwest;whiteSpace=wrap;html=1;fontSize=12;fontFamily=Helvetica;strokeColor=none;fillColor=#dae8fc;rounded=1;" parent="FMd9MbEWiYony1QI66Ri-48" vertex="1">
          <mxGeometry y="172" width="140" height="26" as="geometry" />
        </mxCell>
        <mxCell id="dxM63xS1KSjtT52cdp6n-29" value="- salario(float)" style="text;align=left;verticalAlign=top;spacingLeft=4;spacingRight=4;overflow=hidden;rotatable=0;points=[[0,0.5],[1,0.5]];portConstraint=eastwest;whiteSpace=wrap;html=1;fontSize=12;fontFamily=Helvetica;strokeColor=none;fillColor=#dae8fc;rounded=1;" parent="FMd9MbEWiYony1QI66Ri-48" vertex="1">
          <mxGeometry y="198" width="140" height="26" as="geometry" />
        </mxCell>
        <mxCell id="FpJMFFJvx9OxjngVxS8z-13" value="Funcionario" style="swimlane;fontStyle=2;align=center;verticalAlign=top;childLayout=stackLayout;horizontal=1;startSize=26;horizontalStack=0;resizeParent=1;resizeLast=0;collapsible=1;marginBottom=0;rounded=1;shadow=0;strokeWidth=1;swimlaneLine=1;strokeColor=#6C8EBF;fillColor=#A6C6F2;" parent="WIyWlLk6GJQsqaUBKTNV-1" vertex="1">
          <mxGeometry x="240" y="260" width="186" height="330" as="geometry">
            <mxRectangle x="230" y="140" width="160" height="26" as="alternateBounds" />
          </mxGeometry>
        </mxCell>
        <mxCell id="FpJMFFJvx9OxjngVxS8z-14" value="- nome: str" style="text;align=left;verticalAlign=top;spacingLeft=4;spacingRight=4;overflow=hidden;rotatable=0;points=[[0,0.5],[1,0.5]];portConstraint=eastwest;strokeColor=none;fillColor=#e8f0fd;rounded=1;shadow=0;" parent="FpJMFFJvx9OxjngVxS8z-13" vertex="1">
          <mxGeometry y="26" width="186" height="26" as="geometry" />
        </mxCell>
        <mxCell id="FpJMFFJvx9OxjngVxS8z-15" value="- cpf: str" style="text;align=left;verticalAlign=top;spacingLeft=4;spacingRight=4;overflow=hidden;rotatable=0;points=[[0,0.5],[1,0.5]];portConstraint=eastwest;rounded=1;shadow=0;html=0;strokeColor=none;fillColor=#e8f0fd;" parent="FpJMFFJvx9OxjngVxS8z-13" vertex="1">
          <mxGeometry y="52" width="186" height="26" as="geometry" />
        </mxCell>
        <mxCell id="FpJMFFJvx9OxjngVxS8z-280" value="- data_nasc: str" style="text;align=left;verticalAlign=top;spacingLeft=4;spacingRight=4;overflow=hidden;rotatable=0;points=[[0,0.5],[1,0.5]];portConstraint=eastwest;strokeColor=none;fillColor=#e8f0fd;rounded=1;shadow=0;" parent="FpJMFFJvx9OxjngVxS8z-13" vertex="1">
          <mxGeometry y="78" width="186" height="26" as="geometry" />
        </mxCell>
        <mxCell id="t7BeZhiAHVBjKm9LZl5y-0" value="- atividade: bool" style="text;align=left;verticalAlign=top;spacingLeft=4;spacingRight=4;overflow=hidden;rotatable=0;points=[[0,0.5],[1,0.5]];portConstraint=eastwest;rounded=1;shadow=0;html=0;strokeColor=none;fillColor=#e8f0fd;" parent="FpJMFFJvx9OxjngVxS8z-13" vertex="1">
          <mxGeometry y="104" width="186" height="26" as="geometry" />
        </mxCell>
        <mxCell id="FpJMFFJvx9OxjngVxS8z-17" value="" style="line;html=1;strokeWidth=1;align=left;verticalAlign=middle;spacingTop=-1;spacingLeft=3;spacingRight=3;rotatable=0;labelPosition=right;points=[];portConstraint=eastwest;dashed=1;strokeColor=none;fillColor=#dae8fc;rounded=1;shadow=0;" parent="FpJMFFJvx9OxjngVxS8z-13" vertex="1">
          <mxGeometry y="130" width="186" height="8" as="geometry" />
        </mxCell>
        <mxCell id="dxM63xS1KSjtT52cdp6n-0" value="- __init__(nome, cpf, data_nasc)" style="text;align=left;verticalAlign=top;spacingLeft=4;spacingRight=4;overflow=hidden;rotatable=0;points=[[0,0.5],[1,0.5]];portConstraint=eastwest;strokeColor=none;fillColor=#dae8fc;rounded=1;shadow=0;" parent="FpJMFFJvx9OxjngVxS8z-13" vertex="1">
          <mxGeometry y="138" width="186" height="32" as="geometry" />
        </mxCell>
        <mxCell id="FpJMFFJvx9OxjngVxS8z-18" value="- nome()" style="text;align=left;verticalAlign=top;spacingLeft=4;spacingRight=4;overflow=hidden;rotatable=0;points=[[0,0.5],[1,0.5]];portConstraint=eastwest;strokeColor=none;fillColor=#DAE8FC;rounded=1;shadow=0;" parent="FpJMFFJvx9OxjngVxS8z-13" vertex="1">
          <mxGeometry y="170" width="186" height="26" as="geometry" />
        </mxCell>
        <mxCell id="FpJMFFJvx9OxjngVxS8z-281" value="- data_nasc()" style="text;align=left;verticalAlign=top;spacingLeft=4;spacingRight=4;overflow=hidden;rotatable=0;points=[[0,0.5],[1,0.5]];portConstraint=eastwest;strokeColor=none;fillColor=#dae8fc;rounded=1;shadow=0;" parent="FpJMFFJvx9OxjngVxS8z-13" vertex="1">
          <mxGeometry y="196" width="186" height="26" as="geometry" />
        </mxCell>
        <mxCell id="FpJMFFJvx9OxjngVxS8z-19" value="- nome(str)" style="text;align=left;verticalAlign=top;spacingLeft=4;spacingRight=4;overflow=hidden;rotatable=0;points=[[0,0.5],[1,0.5]];portConstraint=eastwest;strokeColor=none;fillColor=#dae8fc;rounded=1;shadow=0;" parent="FpJMFFJvx9OxjngVxS8z-13" vertex="1">
          <mxGeometry y="222" width="186" height="26" as="geometry" />
        </mxCell>
        <mxCell id="FpJMFFJvx9OxjngVxS8z-282" value="- data_nasc(str)" style="text;align=left;verticalAlign=top;spacingLeft=4;spacingRight=4;overflow=hidden;rotatable=0;points=[[0,0.5],[1,0.5]];portConstraint=eastwest;strokeColor=none;fillColor=#dae8fc;rounded=1;shadow=0;" parent="FpJMFFJvx9OxjngVxS8z-13" vertex="1">
          <mxGeometry y="248" width="186" height="26" as="geometry" />
        </mxCell>
        <mxCell id="FpJMFFJvx9OxjngVxS8z-20" value="- cpf()" style="text;align=left;verticalAlign=top;spacingLeft=4;spacingRight=4;overflow=hidden;rotatable=0;points=[[0,0.5],[1,0.5]];portConstraint=eastwest;rounded=1;shadow=0;html=0;strokeColor=none;fillColor=#dae8fc;" parent="FpJMFFJvx9OxjngVxS8z-13" vertex="1">
          <mxGeometry y="274" width="186" height="26" as="geometry" />
        </mxCell>
        <mxCell id="FpJMFFJvx9OxjngVxS8z-21" value="- cpf(str)" style="text;align=left;verticalAlign=top;spacingLeft=4;spacingRight=4;overflow=hidden;rotatable=0;points=[[0,0.5],[1,0.5]];portConstraint=eastwest;rounded=1;shadow=0;html=0;strokeColor=none;fillColor=#dae8fc;" parent="FpJMFFJvx9OxjngVxS8z-13" vertex="1">
          <mxGeometry y="300" width="186" height="26" as="geometry" />
        </mxCell>
        <mxCell id="FJltLAKSmcvHp2W2NROA-34" style="edgeStyle=orthogonalEdgeStyle;rounded=1;orthogonalLoop=1;jettySize=auto;html=1;endArrow=block;endFill=0;endSize=20;strokeColor=#6C8EBF;shadow=0;entryX=0.5;entryY=1;entryDx=0;entryDy=0;" parent="WIyWlLk6GJQsqaUBKTNV-1" source="FpJMFFJvx9OxjngVxS8z-25" target="FpJMFFJvx9OxjngVxS8z-13" edge="1">
          <mxGeometry relative="1" as="geometry">
            <Array as="points">
              <mxPoint x="165" y="670" />
              <mxPoint x="333" y="670" />
            </Array>
            <mxPoint x="350" y="610" as="targetPoint" />
          </mxGeometry>
        </mxCell>
        <mxCell id="FpJMFFJvx9OxjngVxS8z-25" value="Gerente" style="swimlane;fontStyle=0;align=center;verticalAlign=top;childLayout=stackLayout;horizontal=1;startSize=26;horizontalStack=0;resizeParent=1;resizeLast=0;collapsible=1;marginBottom=0;rounded=1;shadow=0;strokeWidth=1;swimlaneLine=1;strokeColor=#6C8EBF;fillColor=#A6C6F2;perimeterSpacing=0;" parent="WIyWlLk6GJQsqaUBKTNV-1" vertex="1">
          <mxGeometry x="70" y="702" width="190" height="138" as="geometry">
            <mxRectangle x="230" y="140" width="160" height="26" as="alternateBounds" />
          </mxGeometry>
        </mxCell>
        <mxCell id="FpJMFFJvx9OxjngVxS8z-26" value="- contratos: []" style="text;align=left;verticalAlign=top;spacingLeft=4;spacingRight=4;overflow=hidden;rotatable=0;points=[[0,0.5],[1,0.5]];portConstraint=eastwest;rounded=1;shadow=0;html=0;strokeColor=none;fillColor=#e8f0fd;" parent="FpJMFFJvx9OxjngVxS8z-25" vertex="1">
          <mxGeometry y="26" width="190" height="26" as="geometry" />
        </mxCell>
        <mxCell id="FpJMFFJvx9OxjngVxS8z-27" value="" style="line;html=1;strokeWidth=1;align=left;verticalAlign=middle;spacingTop=-1;spacingLeft=3;spacingRight=3;rotatable=0;labelPosition=right;points=[];portConstraint=eastwest;dashed=1;strokeColor=none;fillColor=#dae8fc;rounded=1;shadow=0;" parent="FpJMFFJvx9OxjngVxS8z-25" vertex="1">
          <mxGeometry y="52" width="190" height="8" as="geometry" />
        </mxCell>
        <mxCell id="FJltLAKSmcvHp2W2NROA-30" value="- contratos()" style="text;align=left;verticalAlign=top;spacingLeft=4;spacingRight=4;overflow=hidden;rotatable=0;points=[[0,0.5],[1,0.5]];portConstraint=eastwest;rounded=1;shadow=0;html=0;strokeColor=none;fillColor=#dae8fc;" parent="FpJMFFJvx9OxjngVxS8z-25" vertex="1">
          <mxGeometry y="60" width="190" height="26" as="geometry" />
        </mxCell>
        <mxCell id="FJltLAKSmcvHp2W2NROA-31" value="- add_contrato()" style="text;align=left;verticalAlign=top;spacingLeft=4;spacingRight=4;overflow=hidden;rotatable=0;points=[[0,0.5],[1,0.5]];portConstraint=eastwest;rounded=1;shadow=0;html=0;strokeColor=none;fillColor=#dae8fc;" parent="FpJMFFJvx9OxjngVxS8z-25" vertex="1">
          <mxGeometry y="86" width="190" height="26" as="geometry" />
        </mxCell>
        <mxCell id="FJltLAKSmcvHp2W2NROA-32" value="- rem_contrato()" style="text;align=left;verticalAlign=top;spacingLeft=4;spacingRight=4;overflow=hidden;rotatable=0;points=[[0,0.5],[1,0.5]];portConstraint=eastwest;rounded=1;shadow=0;html=0;strokeColor=none;fillColor=#dae8fc;" parent="FpJMFFJvx9OxjngVxS8z-25" vertex="1">
          <mxGeometry y="112" width="190" height="26" as="geometry" />
        </mxCell>
        <mxCell id="FpJMFFJvx9OxjngVxS8z-31" value="FunComum" style="swimlane;fontStyle=0;align=center;verticalAlign=top;childLayout=stackLayout;horizontal=1;startSize=26;horizontalStack=0;resizeParent=1;resizeLast=0;collapsible=1;marginBottom=0;rounded=1;shadow=0;strokeWidth=1;swimlaneLine=1;strokeColor=#6C8EBF;fillColor=#A6C6F2;" parent="WIyWlLk6GJQsqaUBKTNV-1" vertex="1">
          <mxGeometry x="290" y="712" width="170" height="60" as="geometry">
            <mxRectangle x="230" y="140" width="160" height="26" as="alternateBounds" />
          </mxGeometry>
        </mxCell>
        <mxCell id="FpJMFFJvx9OxjngVxS8z-32" value="" style="text;align=left;verticalAlign=top;spacingLeft=4;spacingRight=4;overflow=hidden;rotatable=0;points=[[0,0.5],[1,0.5]];portConstraint=eastwest;rounded=1;shadow=0;html=0;strokeColor=none;fillColor=#e8f0fd;" parent="FpJMFFJvx9OxjngVxS8z-31" vertex="1">
          <mxGeometry y="26" width="170" height="26" as="geometry" />
        </mxCell>
        <mxCell id="FpJMFFJvx9OxjngVxS8z-33" value="" style="line;html=1;strokeWidth=1;align=left;verticalAlign=middle;spacingTop=-1;spacingLeft=3;spacingRight=3;rotatable=0;labelPosition=right;points=[];portConstraint=eastwest;dashed=1;strokeColor=none;fillColor=#dae8fc;rounded=1;shadow=0;" parent="FpJMFFJvx9OxjngVxS8z-31" vertex="1">
          <mxGeometry y="52" width="170" height="8" as="geometry" />
        </mxCell>
        <mxCell id="zMUwehsQKJZIWUGshv16-0" style="edgeStyle=orthogonalEdgeStyle;rounded=0;orthogonalLoop=1;jettySize=auto;html=1;entryX=-0.027;entryY=1.067;entryDx=0;entryDy=0;entryPerimeter=0;endArrow=open;endFill=0;endSize=16;fillColor=#dae8fc;strokeColor=#6c8ebf;" parent="WIyWlLk6GJQsqaUBKTNV-1" source="FpJMFFJvx9OxjngVxS8z-36" target="FMd9MbEWiYony1QI66Ri-50" edge="1">
          <mxGeometry relative="1" as="geometry" />
        </mxCell>
        <mxCell id="FpJMFFJvx9OxjngVxS8z-36" value="Contrato" style="swimlane;fontStyle=0;align=center;verticalAlign=top;childLayout=stackLayout;horizontal=1;startSize=26;horizontalStack=0;resizeParent=1;resizeLast=0;collapsible=1;marginBottom=0;rounded=1;shadow=0;strokeWidth=1;swimlaneLine=1;strokeColor=#6C8EBF;fillColor=#A6C6F2;" parent="WIyWlLk6GJQsqaUBKTNV-1" vertex="1">
          <mxGeometry x="490" y="155" width="190" height="698" as="geometry">
            <mxRectangle x="230" y="140" width="160" height="26" as="alternateBounds" />
          </mxGeometry>
        </mxCell>
        <mxCell id="6TJ5mSXtSwyp7b67H06s-2" value="- id: int" style="text;align=left;verticalAlign=top;spacingLeft=4;spacingRight=4;overflow=hidden;rotatable=0;points=[[0,0.5],[1,0.5]];portConstraint=eastwest;whiteSpace=wrap;html=1;fontSize=12;fontFamily=Helvetica;strokeColor=none;fillColor=#e8f0fd;rounded=1;shadow=0;" parent="FpJMFFJvx9OxjngVxS8z-36" vertex="1">
          <mxGeometry y="26" width="190" height="26" as="geometry" />
        </mxCell>
        <mxCell id="FpJMFFJvx9OxjngVxS8z-37" value="- data_inicio: str" style="text;align=left;verticalAlign=top;spacingLeft=4;spacingRight=4;overflow=hidden;rotatable=0;points=[[0,0.5],[1,0.5]];portConstraint=eastwest;rounded=1;shadow=0;html=0;strokeColor=none;fillColor=#e8f0fd;" parent="FpJMFFJvx9OxjngVxS8z-36" vertex="1">
          <mxGeometry y="52" width="190" height="26" as="geometry" />
        </mxCell>
        <mxCell id="FpJMFFJvx9OxjngVxS8z-38" value="- data_final: str" style="text;align=left;verticalAlign=top;spacingLeft=4;spacingRight=4;overflow=hidden;rotatable=0;points=[[0,0.5],[1,0.5]];portConstraint=eastwest;rounded=1;shadow=0;html=0;strokeColor=none;fillColor=#e8f0fd;" parent="FpJMFFJvx9OxjngVxS8z-36" vertex="1">
          <mxGeometry y="78" width="190" height="26" as="geometry" />
        </mxCell>
        <mxCell id="FpJMFFJvx9OxjngVxS8z-69" value="- cargo: Cargo" style="text;align=left;verticalAlign=top;spacingLeft=4;spacingRight=4;overflow=hidden;rotatable=0;points=[[0,0.5],[1,0.5]];portConstraint=eastwest;rounded=1;shadow=0;html=0;strokeColor=none;fillColor=#e8f0fd;" parent="FpJMFFJvx9OxjngVxS8z-36" vertex="1">
          <mxGeometry y="104" width="190" height="26" as="geometry" />
        </mxCell>
        <mxCell id="FpJMFFJvx9OxjngVxS8z-39" value="- empregado: Funcionário" style="text;align=left;verticalAlign=top;spacingLeft=4;spacingRight=4;overflow=hidden;rotatable=0;points=[[0,0.5],[1,0.5]];portConstraint=eastwest;rounded=1;shadow=0;html=0;strokeColor=none;fillColor=#e8f0fd;" parent="FpJMFFJvx9OxjngVxS8z-36" vertex="1">
          <mxGeometry y="130" width="190" height="26" as="geometry" />
        </mxCell>
        <mxCell id="FJltLAKSmcvHp2W2NROA-43" value="- empregador: Gerente" style="text;align=left;verticalAlign=top;spacingLeft=4;spacingRight=4;overflow=hidden;rotatable=0;points=[[0,0.5],[1,0.5]];portConstraint=eastwest;rounded=1;shadow=0;html=0;strokeColor=none;fillColor=#e8f0fd;" parent="FpJMFFJvx9OxjngVxS8z-36" vertex="1">
          <mxGeometry y="156" width="190" height="26" as="geometry" />
        </mxCell>
        <mxCell id="FpJMFFJvx9OxjngVxS8z-40" value="- filial: Filial" style="text;align=left;verticalAlign=top;spacingLeft=4;spacingRight=4;overflow=hidden;rotatable=0;points=[[0,0.5],[1,0.5]];portConstraint=eastwest;rounded=1;shadow=0;html=0;strokeColor=none;fillColor=#e8f0fd;" parent="FpJMFFJvx9OxjngVxS8z-36" vertex="1">
          <mxGeometry y="182" width="190" height="26" as="geometry" />
        </mxCell>
        <mxCell id="FJltLAKSmcvHp2W2NROA-2" value="- mud_cargos: []" style="text;align=left;verticalAlign=top;spacingLeft=4;spacingRight=4;overflow=hidden;rotatable=0;points=[[0,0.5],[1,0.5]];portConstraint=eastwest;rounded=1;shadow=0;html=0;strokeColor=none;fillColor=#e8f0fd;" parent="FpJMFFJvx9OxjngVxS8z-36" vertex="1">
          <mxGeometry y="208" width="190" height="26" as="geometry" />
        </mxCell>
        <mxCell id="FJltLAKSmcvHp2W2NROA-4" value="- transferencias: []" style="text;align=left;verticalAlign=top;spacingLeft=4;spacingRight=4;overflow=hidden;rotatable=0;points=[[0,0.5],[1,0.5]];portConstraint=eastwest;rounded=1;shadow=0;html=0;strokeColor=none;fillColor=#e8f0fd;" parent="FpJMFFJvx9OxjngVxS8z-36" vertex="1">
          <mxGeometry y="234" width="190" height="26" as="geometry" />
        </mxCell>
        <mxCell id="FpJMFFJvx9OxjngVxS8z-41" value="" style="line;html=1;strokeWidth=1;align=left;verticalAlign=middle;spacingTop=-1;spacingLeft=3;spacingRight=3;rotatable=0;labelPosition=right;points=[];portConstraint=eastwest;dashed=1;strokeColor=none;fillColor=#FCFCFC;rounded=1;shadow=0;" parent="FpJMFFJvx9OxjngVxS8z-36" vertex="1">
          <mxGeometry y="260" width="190" height="8" as="geometry" />
        </mxCell>
        <mxCell id="dxM63xS1KSjtT52cdp6n-19" value="- __init__(data_inicio, cargo, &#xa;empregado, filial)" style="text;align=left;verticalAlign=top;spacingLeft=4;spacingRight=4;overflow=hidden;rotatable=0;points=[[0,0.5],[1,0.5]];portConstraint=eastwest;strokeColor=none;fillColor=#dae8fc;rounded=1;shadow=0;" parent="FpJMFFJvx9OxjngVxS8z-36" vertex="1">
          <mxGeometry y="268" width="190" height="40" as="geometry" />
        </mxCell>
        <mxCell id="6TJ5mSXtSwyp7b67H06s-3" value="- id()" style="text;align=left;verticalAlign=top;spacingLeft=4;spacingRight=4;overflow=hidden;rotatable=0;points=[[0,0.5],[1,0.5]];portConstraint=eastwest;whiteSpace=wrap;html=1;fontSize=12;fontFamily=Helvetica;strokeColor=none;fillColor=#dae8fc;rounded=1;shadow=0;" parent="FpJMFFJvx9OxjngVxS8z-36" vertex="1">
          <mxGeometry y="308" width="190" height="26" as="geometry" />
        </mxCell>
        <mxCell id="FpJMFFJvx9OxjngVxS8z-42" value="- data_inicio()" style="text;align=left;verticalAlign=top;spacingLeft=4;spacingRight=4;overflow=hidden;rotatable=0;points=[[0,0.5],[1,0.5]];portConstraint=eastwest;rounded=1;shadow=0;html=0;strokeColor=none;fillColor=#dae8fc;" parent="FpJMFFJvx9OxjngVxS8z-36" vertex="1">
          <mxGeometry y="334" width="190" height="26" as="geometry" />
        </mxCell>
        <mxCell id="FpJMFFJvx9OxjngVxS8z-43" value="- data_inicio(str)" style="text;align=left;verticalAlign=top;spacingLeft=4;spacingRight=4;overflow=hidden;rotatable=0;points=[[0,0.5],[1,0.5]];portConstraint=eastwest;rounded=1;shadow=0;html=0;strokeColor=none;fillColor=#dae8fc;" parent="FpJMFFJvx9OxjngVxS8z-36" vertex="1">
          <mxGeometry y="360" width="190" height="26" as="geometry" />
        </mxCell>
        <mxCell id="FpJMFFJvx9OxjngVxS8z-44" value="- data_final()" style="text;align=left;verticalAlign=top;spacingLeft=4;spacingRight=4;overflow=hidden;rotatable=0;points=[[0,0.5],[1,0.5]];portConstraint=eastwest;rounded=1;shadow=0;html=0;strokeColor=none;fillColor=#dae8fc;" parent="FpJMFFJvx9OxjngVxS8z-36" vertex="1">
          <mxGeometry y="386" width="190" height="26" as="geometry" />
        </mxCell>
        <mxCell id="FpJMFFJvx9OxjngVxS8z-45" value="- data_final(str)" style="text;align=left;verticalAlign=top;spacingLeft=4;spacingRight=4;overflow=hidden;rotatable=0;points=[[0,0.5],[1,0.5]];portConstraint=eastwest;rounded=1;shadow=0;html=0;strokeColor=none;fillColor=#dae8fc;" parent="FpJMFFJvx9OxjngVxS8z-36" vertex="1">
          <mxGeometry y="412" width="190" height="26" as="geometry" />
        </mxCell>
        <mxCell id="FpJMFFJvx9OxjngVxS8z-46" value="- empregado()" style="text;align=left;verticalAlign=top;spacingLeft=4;spacingRight=4;overflow=hidden;rotatable=0;points=[[0,0.5],[1,0.5]];portConstraint=eastwest;rounded=1;shadow=0;html=0;strokeColor=none;fillColor=#dae8fc;" parent="FpJMFFJvx9OxjngVxS8z-36" vertex="1">
          <mxGeometry y="438" width="190" height="26" as="geometry" />
        </mxCell>
        <mxCell id="FpJMFFJvx9OxjngVxS8z-47" value="- empregado(Funcionario)" style="text;align=left;verticalAlign=top;spacingLeft=4;spacingRight=4;overflow=hidden;rotatable=0;points=[[0,0.5],[1,0.5]];portConstraint=eastwest;rounded=1;shadow=0;html=0;strokeColor=none;fillColor=#dae8fc;" parent="FpJMFFJvx9OxjngVxS8z-36" vertex="1">
          <mxGeometry y="464" width="190" height="26" as="geometry" />
        </mxCell>
        <mxCell id="FpJMFFJvx9OxjngVxS8z-50" value="- filial()" style="text;align=left;verticalAlign=top;spacingLeft=4;spacingRight=4;overflow=hidden;rotatable=0;points=[[0,0.5],[1,0.5]];portConstraint=eastwest;rounded=1;shadow=0;html=0;strokeColor=none;fillColor=#dae8fc;" parent="FpJMFFJvx9OxjngVxS8z-36" vertex="1">
          <mxGeometry y="490" width="190" height="26" as="geometry" />
        </mxCell>
        <mxCell id="FpJMFFJvx9OxjngVxS8z-51" value="- filial(Filial)" style="text;align=left;verticalAlign=top;spacingLeft=4;spacingRight=4;overflow=hidden;rotatable=0;points=[[0,0.5],[1,0.5]];portConstraint=eastwest;rounded=1;shadow=0;html=0;strokeColor=none;fillColor=#dae8fc;" parent="FpJMFFJvx9OxjngVxS8z-36" vertex="1">
          <mxGeometry y="516" width="190" height="26" as="geometry" />
        </mxCell>
        <mxCell id="FJltLAKSmcvHp2W2NROA-24" value="- transferencias()" style="text;align=left;verticalAlign=top;spacingLeft=4;spacingRight=4;overflow=hidden;rotatable=0;points=[[0,0.5],[1,0.5]];portConstraint=eastwest;rounded=1;shadow=0;html=0;strokeColor=none;fillColor=#dae8fc;" parent="FpJMFFJvx9OxjngVxS8z-36" vertex="1">
          <mxGeometry y="542" width="190" height="26" as="geometry" />
        </mxCell>
        <mxCell id="FJltLAKSmcvHp2W2NROA-25" value="- mud_cargo()" style="text;align=left;verticalAlign=top;spacingLeft=4;spacingRight=4;overflow=hidden;rotatable=0;points=[[0,0.5],[1,0.5]];portConstraint=eastwest;rounded=1;shadow=0;html=0;strokeColor=none;fillColor=#dae8fc;" parent="FpJMFFJvx9OxjngVxS8z-36" vertex="1">
          <mxGeometry y="568" width="190" height="26" as="geometry" />
        </mxCell>
        <mxCell id="FJltLAKSmcvHp2W2NROA-6" value="- add_transf(filial_nova)" style="text;align=left;verticalAlign=top;spacingLeft=4;spacingRight=4;overflow=hidden;rotatable=0;points=[[0,0.5],[1,0.5]];portConstraint=eastwest;rounded=1;shadow=0;html=0;strokeColor=none;fillColor=#dae8fc;" parent="FpJMFFJvx9OxjngVxS8z-36" vertex="1">
          <mxGeometry y="594" width="190" height="26" as="geometry" />
        </mxCell>
        <mxCell id="FJltLAKSmcvHp2W2NROA-21" value="- add_mud_cargo(filial_nova)" style="text;align=left;verticalAlign=top;spacingLeft=4;spacingRight=4;overflow=hidden;rotatable=0;points=[[0,0.5],[1,0.5]];portConstraint=eastwest;rounded=1;shadow=0;html=0;strokeColor=none;fillColor=#dae8fc;" parent="FpJMFFJvx9OxjngVxS8z-36" vertex="1">
          <mxGeometry y="620" width="190" height="26" as="geometry" />
        </mxCell>
        <mxCell id="FJltLAKSmcvHp2W2NROA-22" value="- rem_transf()" style="text;align=left;verticalAlign=top;spacingLeft=4;spacingRight=4;overflow=hidden;rotatable=0;points=[[0,0.5],[1,0.5]];portConstraint=eastwest;rounded=1;shadow=0;html=0;strokeColor=none;fillColor=#dae8fc;" parent="FpJMFFJvx9OxjngVxS8z-36" vertex="1">
          <mxGeometry y="646" width="190" height="26" as="geometry" />
        </mxCell>
        <mxCell id="FJltLAKSmcvHp2W2NROA-23" value="- rem_mud_cargo()" style="text;align=left;verticalAlign=top;spacingLeft=4;spacingRight=4;overflow=hidden;rotatable=0;points=[[0,0.5],[1,0.5]];portConstraint=eastwest;rounded=1;shadow=0;html=0;strokeColor=none;fillColor=#dae8fc;" parent="FpJMFFJvx9OxjngVxS8z-36" vertex="1">
          <mxGeometry y="672" width="190" height="26" as="geometry" />
        </mxCell>
        <mxCell id="FpJMFFJvx9OxjngVxS8z-52" value="Filial" style="swimlane;fontStyle=0;align=center;verticalAlign=top;childLayout=stackLayout;horizontal=1;startSize=26;horizontalStack=0;resizeParent=1;resizeLast=0;collapsible=1;marginBottom=0;rounded=1;shadow=0;strokeWidth=1;swimlaneLine=1;strokeColor=#6C8EBF;fillColor=#a6c6f2;swimlaneFillColor=default;" parent="WIyWlLk6GJQsqaUBKTNV-1" vertex="1">
          <mxGeometry x="10" y="236" width="180" height="400" as="geometry">
            <mxRectangle x="230" y="140" width="160" height="26" as="alternateBounds" />
          </mxGeometry>
        </mxCell>
        <mxCell id="FpJMFFJvx9OxjngVxS8z-53" value="- cep: str" style="text;align=left;verticalAlign=top;spacingLeft=4;spacingRight=4;overflow=hidden;rotatable=0;points=[[0,0.5],[1,0.5]];portConstraint=eastwest;strokeColor=none;fillColor=#e8f0fd;rounded=1;shadow=0;" parent="FpJMFFJvx9OxjngVxS8z-52" vertex="1">
          <mxGeometry y="26" width="180" height="26" as="geometry" />
        </mxCell>
        <mxCell id="1QmtrgUNV1MQR9XVLwK_-1" value="- cidade: str" style="text;align=left;verticalAlign=top;spacingLeft=4;spacingRight=4;overflow=hidden;rotatable=0;points=[[0,0.5],[1,0.5]];portConstraint=eastwest;strokeColor=none;fillColor=#e8f0fd;rounded=1;shadow=0;" parent="FpJMFFJvx9OxjngVxS8z-52" vertex="1">
          <mxGeometry y="52" width="180" height="26" as="geometry" />
        </mxCell>
        <mxCell id="FpJMFFJvx9OxjngVxS8z-54" value="- gerente: Gerente" style="text;align=left;verticalAlign=top;spacingLeft=4;spacingRight=4;overflow=hidden;rotatable=0;points=[[0,0.5],[1,0.5]];portConstraint=eastwest;rounded=1;shadow=0;html=0;strokeColor=none;fillColor=#e8f0fd;" parent="FpJMFFJvx9OxjngVxS8z-52" vertex="1">
          <mxGeometry y="78" width="180" height="26" as="geometry" />
        </mxCell>
        <mxCell id="FpJMFFJvx9OxjngVxS8z-55" value="- funcionarios: []" style="text;align=left;verticalAlign=top;spacingLeft=4;spacingRight=4;overflow=hidden;rotatable=0;points=[[0,0.5],[1,0.5]];portConstraint=eastwest;rounded=1;shadow=0;html=0;strokeColor=none;fillColor=#e8f0fd;" parent="FpJMFFJvx9OxjngVxS8z-52" vertex="1">
          <mxGeometry y="104" width="180" height="26" as="geometry" />
        </mxCell>
        <mxCell id="FpJMFFJvx9OxjngVxS8z-56" value="" style="line;html=1;strokeWidth=1;align=left;verticalAlign=middle;spacingTop=-1;spacingLeft=3;spacingRight=3;rotatable=0;labelPosition=right;points=[];portConstraint=eastwest;dashed=1;strokeColor=none;fillColor=#dae8fc;rounded=1;shadow=0;" parent="FpJMFFJvx9OxjngVxS8z-52" vertex="1">
          <mxGeometry y="130" width="180" height="8" as="geometry" />
        </mxCell>
        <mxCell id="dxM63xS1KSjtT52cdp6n-31" value="- __init__(cep, cidade, gerente)" style="text;align=left;verticalAlign=top;spacingLeft=4;spacingRight=4;overflow=hidden;rotatable=0;points=[[0,0.5],[1,0.5]];portConstraint=eastwest;strokeColor=none;fillColor=#dae8fc;rounded=1;shadow=0;" parent="FpJMFFJvx9OxjngVxS8z-52" vertex="1">
          <mxGeometry y="138" width="180" height="28" as="geometry" />
        </mxCell>
        <mxCell id="FpJMFFJvx9OxjngVxS8z-57" value="- cep()" style="text;align=left;verticalAlign=top;spacingLeft=4;spacingRight=4;overflow=hidden;rotatable=0;points=[[0,0.5],[1,0.5]];portConstraint=eastwest;strokeColor=none;fillColor=#dae8fc;rounded=1;shadow=0;" parent="FpJMFFJvx9OxjngVxS8z-52" vertex="1">
          <mxGeometry y="166" width="180" height="26" as="geometry" />
        </mxCell>
        <mxCell id="FpJMFFJvx9OxjngVxS8z-58" value="- cep(str)" style="text;align=left;verticalAlign=top;spacingLeft=4;spacingRight=4;overflow=hidden;rotatable=0;points=[[0,0.5],[1,0.5]];portConstraint=eastwest;strokeColor=none;fillColor=#dae8fc;rounded=1;shadow=0;" parent="FpJMFFJvx9OxjngVxS8z-52" vertex="1">
          <mxGeometry y="192" width="180" height="26" as="geometry" />
        </mxCell>
        <mxCell id="1QmtrgUNV1MQR9XVLwK_-2" value="- cidade()" style="text;align=left;verticalAlign=top;spacingLeft=4;spacingRight=4;overflow=hidden;rotatable=0;points=[[0,0.5],[1,0.5]];portConstraint=eastwest;strokeColor=none;fillColor=#dae8fc;rounded=1;shadow=0;" parent="FpJMFFJvx9OxjngVxS8z-52" vertex="1">
          <mxGeometry y="218" width="180" height="26" as="geometry" />
        </mxCell>
        <mxCell id="1QmtrgUNV1MQR9XVLwK_-3" value="- cidade(str)" style="text;align=left;verticalAlign=top;spacingLeft=4;spacingRight=4;overflow=hidden;rotatable=0;points=[[0,0.5],[1,0.5]];portConstraint=eastwest;strokeColor=none;fillColor=#dae8fc;rounded=1;shadow=0;" parent="FpJMFFJvx9OxjngVxS8z-52" vertex="1">
          <mxGeometry y="244" width="180" height="26" as="geometry" />
        </mxCell>
        <mxCell id="FpJMFFJvx9OxjngVxS8z-59" value="- gerente()" style="text;align=left;verticalAlign=top;spacingLeft=4;spacingRight=4;overflow=hidden;rotatable=0;points=[[0,0.5],[1,0.5]];portConstraint=eastwest;rounded=1;shadow=0;html=0;strokeColor=none;fillColor=#dae8fc;" parent="FpJMFFJvx9OxjngVxS8z-52" vertex="1">
          <mxGeometry y="270" width="180" height="26" as="geometry" />
        </mxCell>
        <mxCell id="FpJMFFJvx9OxjngVxS8z-60" value="- gerente(Gerente)" style="text;align=left;verticalAlign=top;spacingLeft=4;spacingRight=4;overflow=hidden;rotatable=0;points=[[0,0.5],[1,0.5]];portConstraint=eastwest;rounded=1;shadow=0;html=0;strokeColor=none;fillColor=#dae8fc;" parent="FpJMFFJvx9OxjngVxS8z-52" vertex="1">
          <mxGeometry y="296" width="180" height="26" as="geometry" />
        </mxCell>
        <mxCell id="FpJMFFJvx9OxjngVxS8z-61" value="- funcionarios()" style="text;align=left;verticalAlign=top;spacingLeft=4;spacingRight=4;overflow=hidden;rotatable=0;points=[[0,0.5],[1,0.5]];portConstraint=eastwest;rounded=1;shadow=0;html=0;strokeColor=none;fillColor=#dae8fc;" parent="FpJMFFJvx9OxjngVxS8z-52" vertex="1">
          <mxGeometry y="322" width="180" height="26" as="geometry" />
        </mxCell>
        <mxCell id="FpJMFFJvx9OxjngVxS8z-62" value="- add_funcionario()" style="text;align=left;verticalAlign=top;spacingLeft=4;spacingRight=4;overflow=hidden;rotatable=0;points=[[0,0.5],[1,0.5]];portConstraint=eastwest;rounded=1;shadow=0;html=0;strokeColor=none;fillColor=#dae8fc;" parent="FpJMFFJvx9OxjngVxS8z-52" vertex="1">
          <mxGeometry y="348" width="180" height="26" as="geometry" />
        </mxCell>
        <mxCell id="FJltLAKSmcvHp2W2NROA-26" value="- rem_funcionario(cpf)" style="text;align=left;verticalAlign=top;spacingLeft=4;spacingRight=4;overflow=hidden;rotatable=0;points=[[0,0.5],[1,0.5]];portConstraint=eastwest;rounded=1;shadow=0;html=0;strokeColor=none;fillColor=#dae8fc;" parent="FpJMFFJvx9OxjngVxS8z-52" vertex="1">
          <mxGeometry y="374" width="180" height="26" as="geometry" />
        </mxCell>
        <mxCell id="FJltLAKSmcvHp2W2NROA-44" value="" style="edgeStyle=orthogonalEdgeStyle;rounded=1;orthogonalLoop=1;jettySize=auto;html=1;strokeColor=#FFFFFF;fontColor=#FFFFFF;exitX=0;exitY=0.5;exitDx=0;exitDy=0;shadow=0;" parent="WIyWlLk6GJQsqaUBKTNV-1" source="FJltLAKSmcvHp2W2NROA-2" target="dxM63xS1KSjtT52cdp6n-0" edge="1">
          <mxGeometry relative="1" as="geometry" />
        </mxCell>
        <mxCell id="FJltLAKSmcvHp2W2NROA-1" style="edgeStyle=orthogonalEdgeStyle;rounded=1;orthogonalLoop=1;jettySize=auto;html=1;endSize=20;endArrow=open;endFill=0;strokeColor=#6C8EBF;exitX=0;exitY=0.5;exitDx=0;exitDy=0;shadow=0;" parent="WIyWlLk6GJQsqaUBKTNV-1" source="FJltLAKSmcvHp2W2NROA-4" edge="1">
          <mxGeometry relative="1" as="geometry">
            <mxPoint x="426" y="399" as="targetPoint" />
            <Array as="points">
              <mxPoint x="470" y="415" />
              <mxPoint x="470" y="399" />
              <mxPoint x="426" y="399" />
            </Array>
          </mxGeometry>
        </mxCell>
        <mxCell id="1QmtrgUNV1MQR9XVLwK_-0" value="" style="endArrow=open;endFill=0;endSize=20;html=1;rounded=1;fontSize=11;exitX=0.25;exitY=0;exitDx=0;exitDy=0;entryX=0.5;entryY=0;entryDx=0;entryDy=0;strokeColor=#6C8EBF;shadow=0;" parent="WIyWlLk6GJQsqaUBKTNV-1" source="FpJMFFJvx9OxjngVxS8z-36" target="FpJMFFJvx9OxjngVxS8z-52" edge="1">
          <mxGeometry width="160" relative="1" as="geometry">
            <mxPoint x="500" y="390" as="sourcePoint" />
            <mxPoint x="660" y="390" as="targetPoint" />
            <Array as="points">
              <mxPoint x="537" y="120" />
              <mxPoint x="100" y="120" />
            </Array>
          </mxGeometry>
        </mxCell>
        <mxCell id="1QmtrgUNV1MQR9XVLwK_-4" style="edgeStyle=orthogonalEdgeStyle;rounded=1;orthogonalLoop=1;jettySize=auto;html=1;endArrow=block;endFill=0;endSize=20;strokeColor=#6C8EBF;shadow=0;entryX=0.488;entryY=1.069;entryDx=0;entryDy=0;entryPerimeter=0;" parent="WIyWlLk6GJQsqaUBKTNV-1" target="FpJMFFJvx9OxjngVxS8z-21" edge="1">
          <mxGeometry relative="1" as="geometry">
            <Array as="points">
              <mxPoint x="380" y="670" />
              <mxPoint x="331" y="670" />
            </Array>
            <mxPoint x="380" y="710" as="sourcePoint" />
            <mxPoint x="330" y="600" as="targetPoint" />
          </mxGeometry>
        </mxCell>
        <mxCell id="1QmtrgUNV1MQR9XVLwK_-6" value="" style="endArrow=open;endFill=0;endSize=20;html=1;rounded=1;fontSize=11;curved=1;strokeColor=#6C8EBF;shadow=0;exitX=0.5;exitY=1;exitDx=0;exitDy=0;" parent="WIyWlLk6GJQsqaUBKTNV-1" source="FpJMFFJvx9OxjngVxS8z-31" edge="1">
          <mxGeometry width="160" relative="1" as="geometry">
            <mxPoint x="380" y="590" as="sourcePoint" />
            <mxPoint x="260" y="810" as="targetPoint" />
            <Array as="points">
              <mxPoint x="380" y="820" />
            </Array>
          </mxGeometry>
        </mxCell>
        <mxCell id="6TJ5mSXtSwyp7b67H06s-8" value="1" style="text;strokeColor=none;fillColor=none;html=1;align=center;verticalAlign=middle;whiteSpace=wrap;rounded=0;fontSize=14;" parent="WIyWlLk6GJQsqaUBKTNV-1" vertex="1">
          <mxGeometry x="100" y="206" width="60" height="30" as="geometry" />
        </mxCell>
        <mxCell id="6TJ5mSXtSwyp7b67H06s-9" value="1" style="text;strokeColor=none;fillColor=none;html=1;align=center;verticalAlign=middle;whiteSpace=wrap;rounded=0;fontSize=14;" parent="WIyWlLk6GJQsqaUBKTNV-1" vertex="1">
          <mxGeometry x="250" y="823" width="60" height="30" as="geometry" />
        </mxCell>
        <mxCell id="6TJ5mSXtSwyp7b67H06s-10" value="1" style="text;strokeColor=none;fillColor=none;html=1;align=center;verticalAlign=middle;whiteSpace=wrap;rounded=0;fontSize=14;" parent="WIyWlLk6GJQsqaUBKTNV-1" vertex="1">
          <mxGeometry x="1050" y="294" width="60" height="30" as="geometry" />
        </mxCell>
        <mxCell id="6TJ5mSXtSwyp7b67H06s-11" value="1..*" style="text;strokeColor=none;fillColor=none;html=1;align=center;verticalAlign=middle;whiteSpace=wrap;rounded=0;fontSize=14;" parent="WIyWlLk6GJQsqaUBKTNV-1" vertex="1">
          <mxGeometry x="190" y="390" width="60" height="30" as="geometry" />
        </mxCell>
        <mxCell id="6TJ5mSXtSwyp7b67H06s-12" value="2" style="text;strokeColor=none;fillColor=none;html=1;align=center;verticalAlign=middle;whiteSpace=wrap;rounded=0;fontSize=14;" parent="WIyWlLk6GJQsqaUBKTNV-1" vertex="1">
          <mxGeometry x="426" y="360" width="60" height="30" as="geometry" />
        </mxCell>
        <mxCell id="6TJ5mSXtSwyp7b67H06s-15" value="1" style="text;strokeColor=none;fillColor=none;html=1;align=center;verticalAlign=middle;whiteSpace=wrap;rounded=0;fontSize=14;" parent="WIyWlLk6GJQsqaUBKTNV-1" vertex="1">
          <mxGeometry x="950" y="294" width="60" height="30" as="geometry" />
        </mxCell>
        <mxCell id="6TJ5mSXtSwyp7b67H06s-17" value="1" style="text;strokeColor=none;fillColor=none;html=1;align=center;verticalAlign=middle;whiteSpace=wrap;rounded=0;fontSize=14;" parent="WIyWlLk6GJQsqaUBKTNV-1" vertex="1">
          <mxGeometry x="310" y="230" width="60" height="30" as="geometry" />
        </mxCell>
        <mxCell id="6TJ5mSXtSwyp7b67H06s-18" value="1" style="text;strokeColor=none;fillColor=none;html=1;align=center;verticalAlign=middle;whiteSpace=wrap;rounded=0;fontSize=14;" parent="WIyWlLk6GJQsqaUBKTNV-1" vertex="1">
          <mxGeometry x="30" y="636" width="60" height="30" as="geometry" />
        </mxCell>
        <mxCell id="6TJ5mSXtSwyp7b67H06s-21" value="1" style="text;strokeColor=none;fillColor=none;html=1;align=center;verticalAlign=middle;whiteSpace=wrap;rounded=0;fontSize=14;" parent="WIyWlLk6GJQsqaUBKTNV-1" vertex="1">
          <mxGeometry x="400" y="590" width="60" height="30" as="geometry" />
        </mxCell>
        <mxCell id="1QmtrgUNV1MQR9XVLwK_-5" value="" style="endArrow=diamond;endFill=0;endSize=20;html=1;rounded=1;fontSize=11;curved=1;strokeColor=#6C8EBF;shadow=0;entryX=1;entryY=0.5;entryDx=0;entryDy=0;exitX=0;exitY=0.5;exitDx=0;exitDy=0;" parent="WIyWlLk6GJQsqaUBKTNV-1" source="FpJMFFJvx9OxjngVxS8z-18" target="FpJMFFJvx9OxjngVxS8z-58" edge="1">
          <mxGeometry width="160" relative="1" as="geometry">
            <mxPoint x="180" y="430" as="sourcePoint" />
            <mxPoint x="240" y="430" as="targetPoint" />
          </mxGeometry>
        </mxCell>
      </root>
    </mxGraphModel>
  </diagram>
  <diagram id="QTDcRtRlIHw8noZDLEcH" name="Página-2">
    <mxGraphModel dx="1450" dy="627" grid="1" gridSize="10" guides="1" tooltips="1" connect="1" arrows="1" fold="1" page="0" pageScale="1" pageWidth="583" pageHeight="827" math="0" shadow="0">
      <root>
        <mxCell id="0" />
        <mxCell id="1" parent="0" />
        <mxCell id="dCsEm6amNZcjnt6qrHP3-1" value="&lt;i style=&quot;font-weight: normal;&quot;&gt;DictDAO&lt;/i&gt;" style="swimlane;fontStyle=1;align=center;verticalAlign=top;childLayout=stackLayout;horizontal=1;startSize=26;horizontalStack=0;resizeParent=1;resizeParentMax=0;resizeLast=0;collapsible=1;marginBottom=0;whiteSpace=wrap;html=1;fontSize=16;" vertex="1" parent="1">
          <mxGeometry x="80" y="110" width="200" height="280" as="geometry" />
        </mxCell>
        <mxCell id="dCsEm6amNZcjnt6qrHP3-2" value="- datasource: str" style="text;strokeColor=none;fillColor=none;align=left;verticalAlign=top;spacingLeft=4;spacingRight=4;overflow=hidden;rotatable=0;points=[[0,0.5],[1,0.5]];portConstraint=eastwest;whiteSpace=wrap;html=1;fontSize=16;" vertex="1" parent="dCsEm6amNZcjnt6qrHP3-1">
          <mxGeometry y="26" width="200" height="26" as="geometry" />
        </mxCell>
        <mxCell id="dCsEm6amNZcjnt6qrHP3-5" value="- cache: dict" style="text;strokeColor=none;fillColor=none;align=left;verticalAlign=top;spacingLeft=4;spacingRight=4;overflow=hidden;rotatable=0;points=[[0,0.5],[1,0.5]];portConstraint=eastwest;whiteSpace=wrap;html=1;fontSize=16;" vertex="1" parent="dCsEm6amNZcjnt6qrHP3-1">
          <mxGeometry y="52" width="200" height="26" as="geometry" />
        </mxCell>
        <mxCell id="dCsEm6amNZcjnt6qrHP3-3" value="" style="line;strokeWidth=1;fillColor=none;align=left;verticalAlign=middle;spacingTop=-1;spacingLeft=3;spacingRight=3;rotatable=0;labelPosition=right;points=[];portConstraint=eastwest;strokeColor=inherit;fontSize=16;" vertex="1" parent="dCsEm6amNZcjnt6qrHP3-1">
          <mxGeometry y="78" width="200" height="8" as="geometry" />
        </mxCell>
        <mxCell id="m7Mk9b9a6HFd1PS-H6u5-2" value="&lt;i&gt;+ __init__(datasource)&lt;/i&gt;" style="text;strokeColor=none;fillColor=none;align=left;verticalAlign=top;spacingLeft=4;spacingRight=4;overflow=hidden;rotatable=0;points=[[0,0.5],[1,0.5]];portConstraint=eastwest;whiteSpace=wrap;html=1;fontSize=16;" vertex="1" parent="dCsEm6amNZcjnt6qrHP3-1">
          <mxGeometry y="86" width="200" height="26" as="geometry" />
        </mxCell>
        <mxCell id="m7Mk9b9a6HFd1PS-H6u5-1" value="+ __dump()" style="text;strokeColor=none;fillColor=none;align=left;verticalAlign=top;spacingLeft=4;spacingRight=4;overflow=hidden;rotatable=0;points=[[0,0.5],[1,0.5]];portConstraint=eastwest;whiteSpace=wrap;html=1;fontSize=16;" vertex="1" parent="dCsEm6amNZcjnt6qrHP3-1">
          <mxGeometry y="112" width="200" height="26" as="geometry" />
        </mxCell>
        <mxCell id="dCsEm6amNZcjnt6qrHP3-4" value="+ __load()" style="text;strokeColor=none;fillColor=none;align=left;verticalAlign=top;spacingLeft=4;spacingRight=4;overflow=hidden;rotatable=0;points=[[0,0.5],[1,0.5]];portConstraint=eastwest;whiteSpace=wrap;html=1;fontSize=16;" vertex="1" parent="dCsEm6amNZcjnt6qrHP3-1">
          <mxGeometry y="138" width="200" height="26" as="geometry" />
        </mxCell>
        <mxCell id="m7Mk9b9a6HFd1PS-H6u5-4" value="+ add(key, obj)" style="text;strokeColor=none;fillColor=none;align=left;verticalAlign=top;spacingLeft=4;spacingRight=4;overflow=hidden;rotatable=0;points=[[0,0.5],[1,0.5]];portConstraint=eastwest;whiteSpace=wrap;html=1;fontSize=16;" vertex="1" parent="dCsEm6amNZcjnt6qrHP3-1">
          <mxGeometry y="164" width="200" height="26" as="geometry" />
        </mxCell>
        <mxCell id="m7Mk9b9a6HFd1PS-H6u5-3" value="+ get(key)" style="text;strokeColor=none;fillColor=none;align=left;verticalAlign=top;spacingLeft=4;spacingRight=4;overflow=hidden;rotatable=0;points=[[0,0.5],[1,0.5]];portConstraint=eastwest;whiteSpace=wrap;html=1;fontSize=16;" vertex="1" parent="dCsEm6amNZcjnt6qrHP3-1">
          <mxGeometry y="190" width="200" height="26" as="geometry" />
        </mxCell>
        <mxCell id="wPx57MHDkJV-dSgdxfSV-1" value="+ remove(key)" style="text;strokeColor=none;fillColor=none;align=left;verticalAlign=top;spacingLeft=4;spacingRight=4;overflow=hidden;rotatable=0;points=[[0,0.5],[1,0.5]];portConstraint=eastwest;whiteSpace=wrap;html=1;fontSize=16;" vertex="1" parent="dCsEm6amNZcjnt6qrHP3-1">
          <mxGeometry y="216" width="200" height="26" as="geometry" />
        </mxCell>
        <mxCell id="wPx57MHDkJV-dSgdxfSV-2" value="+ get_all()" style="text;strokeColor=none;fillColor=none;align=left;verticalAlign=top;spacingLeft=4;spacingRight=4;overflow=hidden;rotatable=0;points=[[0,0.5],[1,0.5]];portConstraint=eastwest;whiteSpace=wrap;html=1;fontSize=16;" vertex="1" parent="dCsEm6amNZcjnt6qrHP3-1">
          <mxGeometry y="242" width="200" height="38" as="geometry" />
        </mxCell>
        <mxCell id="wPx57MHDkJV-dSgdxfSV-3" value="&lt;span style=&quot;font-weight: normal;&quot;&gt;FilialDAO&lt;/span&gt;" style="swimlane;fontStyle=1;align=center;verticalAlign=top;childLayout=stackLayout;horizontal=1;startSize=26;horizontalStack=0;resizeParent=1;resizeParentMax=0;resizeLast=0;collapsible=1;marginBottom=0;whiteSpace=wrap;html=1;fontSize=16;" vertex="1" parent="1">
          <mxGeometry x="-280" y="180" width="200" height="156" as="geometry" />
        </mxCell>
        <mxCell id="wPx57MHDkJV-dSgdxfSV-7" value="+ __init__()" style="text;strokeColor=none;fillColor=none;align=left;verticalAlign=top;spacingLeft=4;spacingRight=4;overflow=hidden;rotatable=0;points=[[0,0.5],[1,0.5]];portConstraint=eastwest;whiteSpace=wrap;html=1;fontSize=16;" vertex="1" parent="wPx57MHDkJV-dSgdxfSV-3">
          <mxGeometry y="26" width="200" height="26" as="geometry" />
        </mxCell>
        <mxCell id="wPx57MHDkJV-dSgdxfSV-10" value="+ add(filial)" style="text;strokeColor=none;fillColor=none;align=left;verticalAlign=top;spacingLeft=4;spacingRight=4;overflow=hidden;rotatable=0;points=[[0,0.5],[1,0.5]];portConstraint=eastwest;whiteSpace=wrap;html=1;fontSize=16;" vertex="1" parent="wPx57MHDkJV-dSgdxfSV-3">
          <mxGeometry y="52" width="200" height="26" as="geometry" />
        </mxCell>
        <mxCell id="wPx57MHDkJV-dSgdxfSV-13" value="+ update(filial)&lt;br&gt;" style="text;strokeColor=none;fillColor=none;align=left;verticalAlign=top;spacingLeft=4;spacingRight=4;overflow=hidden;rotatable=0;points=[[0,0.5],[1,0.5]];portConstraint=eastwest;whiteSpace=wrap;html=1;fontSize=16;" vertex="1" parent="wPx57MHDkJV-dSgdxfSV-3">
          <mxGeometry y="78" width="200" height="26" as="geometry" />
        </mxCell>
        <mxCell id="wPx57MHDkJV-dSgdxfSV-11" value="+ get(key)" style="text;strokeColor=none;fillColor=none;align=left;verticalAlign=top;spacingLeft=4;spacingRight=4;overflow=hidden;rotatable=0;points=[[0,0.5],[1,0.5]];portConstraint=eastwest;whiteSpace=wrap;html=1;fontSize=16;" vertex="1" parent="wPx57MHDkJV-dSgdxfSV-3">
          <mxGeometry y="104" width="200" height="26" as="geometry" />
        </mxCell>
        <mxCell id="wPx57MHDkJV-dSgdxfSV-12" value="+ remove(key)" style="text;strokeColor=none;fillColor=none;align=left;verticalAlign=top;spacingLeft=4;spacingRight=4;overflow=hidden;rotatable=0;points=[[0,0.5],[1,0.5]];portConstraint=eastwest;whiteSpace=wrap;html=1;fontSize=16;" vertex="1" parent="wPx57MHDkJV-dSgdxfSV-3">
          <mxGeometry y="130" width="200" height="26" as="geometry" />
        </mxCell>
        <mxCell id="wPx57MHDkJV-dSgdxfSV-64" value="&lt;span style=&quot;font-weight: normal;&quot;&gt;CargoDAO&lt;/span&gt;" style="swimlane;fontStyle=1;align=center;verticalAlign=top;childLayout=stackLayout;horizontal=1;startSize=26;horizontalStack=0;resizeParent=1;resizeParentMax=0;resizeLast=0;collapsible=1;marginBottom=0;whiteSpace=wrap;html=1;fontSize=16;" vertex="1" parent="1">
          <mxGeometry x="-280" y="470" width="200" height="156" as="geometry" />
        </mxCell>
        <mxCell id="wPx57MHDkJV-dSgdxfSV-65" value="+ __init__()" style="text;strokeColor=none;fillColor=none;align=left;verticalAlign=top;spacingLeft=4;spacingRight=4;overflow=hidden;rotatable=0;points=[[0,0.5],[1,0.5]];portConstraint=eastwest;whiteSpace=wrap;html=1;fontSize=16;" vertex="1" parent="wPx57MHDkJV-dSgdxfSV-64">
          <mxGeometry y="26" width="200" height="26" as="geometry" />
        </mxCell>
        <mxCell id="wPx57MHDkJV-dSgdxfSV-66" value="+ add(cargo)" style="text;strokeColor=none;fillColor=none;align=left;verticalAlign=top;spacingLeft=4;spacingRight=4;overflow=hidden;rotatable=0;points=[[0,0.5],[1,0.5]];portConstraint=eastwest;whiteSpace=wrap;html=1;fontSize=16;" vertex="1" parent="wPx57MHDkJV-dSgdxfSV-64">
          <mxGeometry y="52" width="200" height="26" as="geometry" />
        </mxCell>
        <mxCell id="wPx57MHDkJV-dSgdxfSV-67" value="+ update(cargo)&lt;br&gt;" style="text;strokeColor=none;fillColor=none;align=left;verticalAlign=top;spacingLeft=4;spacingRight=4;overflow=hidden;rotatable=0;points=[[0,0.5],[1,0.5]];portConstraint=eastwest;whiteSpace=wrap;html=1;fontSize=16;" vertex="1" parent="wPx57MHDkJV-dSgdxfSV-64">
          <mxGeometry y="78" width="200" height="26" as="geometry" />
        </mxCell>
        <mxCell id="wPx57MHDkJV-dSgdxfSV-68" value="+ get(key)" style="text;strokeColor=none;fillColor=none;align=left;verticalAlign=top;spacingLeft=4;spacingRight=4;overflow=hidden;rotatable=0;points=[[0,0.5],[1,0.5]];portConstraint=eastwest;whiteSpace=wrap;html=1;fontSize=16;" vertex="1" parent="wPx57MHDkJV-dSgdxfSV-64">
          <mxGeometry y="104" width="200" height="26" as="geometry" />
        </mxCell>
        <mxCell id="wPx57MHDkJV-dSgdxfSV-69" value="+ remove(key)" style="text;strokeColor=none;fillColor=none;align=left;verticalAlign=top;spacingLeft=4;spacingRight=4;overflow=hidden;rotatable=0;points=[[0,0.5],[1,0.5]];portConstraint=eastwest;whiteSpace=wrap;html=1;fontSize=16;" vertex="1" parent="wPx57MHDkJV-dSgdxfSV-64">
          <mxGeometry y="130" width="200" height="26" as="geometry" />
        </mxCell>
        <mxCell id="wPx57MHDkJV-dSgdxfSV-70" value="&lt;span style=&quot;font-weight: normal;&quot;&gt;ContratoDAO&lt;/span&gt;" style="swimlane;fontStyle=1;align=center;verticalAlign=top;childLayout=stackLayout;horizontal=1;startSize=26;horizontalStack=0;resizeParent=1;resizeParentMax=0;resizeLast=0;collapsible=1;marginBottom=0;whiteSpace=wrap;html=1;fontSize=16;" vertex="1" parent="1">
          <mxGeometry x="80" y="470" width="200" height="156" as="geometry" />
        </mxCell>
        <mxCell id="wPx57MHDkJV-dSgdxfSV-71" value="+ __init__()" style="text;strokeColor=none;fillColor=none;align=left;verticalAlign=top;spacingLeft=4;spacingRight=4;overflow=hidden;rotatable=0;points=[[0,0.5],[1,0.5]];portConstraint=eastwest;whiteSpace=wrap;html=1;fontSize=16;" vertex="1" parent="wPx57MHDkJV-dSgdxfSV-70">
          <mxGeometry y="26" width="200" height="26" as="geometry" />
        </mxCell>
        <mxCell id="wPx57MHDkJV-dSgdxfSV-72" value="+ add(contrato)" style="text;strokeColor=none;fillColor=none;align=left;verticalAlign=top;spacingLeft=4;spacingRight=4;overflow=hidden;rotatable=0;points=[[0,0.5],[1,0.5]];portConstraint=eastwest;whiteSpace=wrap;html=1;fontSize=16;" vertex="1" parent="wPx57MHDkJV-dSgdxfSV-70">
          <mxGeometry y="52" width="200" height="26" as="geometry" />
        </mxCell>
        <mxCell id="wPx57MHDkJV-dSgdxfSV-73" value="+ update(contrato)" style="text;strokeColor=none;fillColor=none;align=left;verticalAlign=top;spacingLeft=4;spacingRight=4;overflow=hidden;rotatable=0;points=[[0,0.5],[1,0.5]];portConstraint=eastwest;whiteSpace=wrap;html=1;fontSize=16;" vertex="1" parent="wPx57MHDkJV-dSgdxfSV-70">
          <mxGeometry y="78" width="200" height="26" as="geometry" />
        </mxCell>
        <mxCell id="wPx57MHDkJV-dSgdxfSV-74" value="+ get(key)" style="text;strokeColor=none;fillColor=none;align=left;verticalAlign=top;spacingLeft=4;spacingRight=4;overflow=hidden;rotatable=0;points=[[0,0.5],[1,0.5]];portConstraint=eastwest;whiteSpace=wrap;html=1;fontSize=16;" vertex="1" parent="wPx57MHDkJV-dSgdxfSV-70">
          <mxGeometry y="104" width="200" height="26" as="geometry" />
        </mxCell>
        <mxCell id="wPx57MHDkJV-dSgdxfSV-75" value="+ remove(key)" style="text;strokeColor=none;fillColor=none;align=left;verticalAlign=top;spacingLeft=4;spacingRight=4;overflow=hidden;rotatable=0;points=[[0,0.5],[1,0.5]];portConstraint=eastwest;whiteSpace=wrap;html=1;fontSize=16;" vertex="1" parent="wPx57MHDkJV-dSgdxfSV-70">
          <mxGeometry y="130" width="200" height="26" as="geometry" />
        </mxCell>
        <mxCell id="wPx57MHDkJV-dSgdxfSV-76" value="&lt;span style=&quot;font-weight: normal;&quot;&gt;FunComumDAO&lt;/span&gt;" style="swimlane;fontStyle=1;align=center;verticalAlign=top;childLayout=stackLayout;horizontal=1;startSize=26;horizontalStack=0;resizeParent=1;resizeParentMax=0;resizeLast=0;collapsible=1;marginBottom=0;whiteSpace=wrap;html=1;fontSize=16;" vertex="1" parent="1">
          <mxGeometry x="440" y="470" width="200" height="156" as="geometry" />
        </mxCell>
        <mxCell id="wPx57MHDkJV-dSgdxfSV-77" value="+ __init__()" style="text;strokeColor=none;fillColor=none;align=left;verticalAlign=top;spacingLeft=4;spacingRight=4;overflow=hidden;rotatable=0;points=[[0,0.5],[1,0.5]];portConstraint=eastwest;whiteSpace=wrap;html=1;fontSize=16;" vertex="1" parent="wPx57MHDkJV-dSgdxfSV-76">
          <mxGeometry y="26" width="200" height="26" as="geometry" />
        </mxCell>
        <mxCell id="wPx57MHDkJV-dSgdxfSV-78" value="+ add(fun_comum)" style="text;strokeColor=none;fillColor=none;align=left;verticalAlign=top;spacingLeft=4;spacingRight=4;overflow=hidden;rotatable=0;points=[[0,0.5],[1,0.5]];portConstraint=eastwest;whiteSpace=wrap;html=1;fontSize=16;" vertex="1" parent="wPx57MHDkJV-dSgdxfSV-76">
          <mxGeometry y="52" width="200" height="26" as="geometry" />
        </mxCell>
        <mxCell id="wPx57MHDkJV-dSgdxfSV-79" value="+ update(fun_comum)" style="text;strokeColor=none;fillColor=none;align=left;verticalAlign=top;spacingLeft=4;spacingRight=4;overflow=hidden;rotatable=0;points=[[0,0.5],[1,0.5]];portConstraint=eastwest;whiteSpace=wrap;html=1;fontSize=16;" vertex="1" parent="wPx57MHDkJV-dSgdxfSV-76">
          <mxGeometry y="78" width="200" height="26" as="geometry" />
        </mxCell>
        <mxCell id="wPx57MHDkJV-dSgdxfSV-80" value="+ get(key)" style="text;strokeColor=none;fillColor=none;align=left;verticalAlign=top;spacingLeft=4;spacingRight=4;overflow=hidden;rotatable=0;points=[[0,0.5],[1,0.5]];portConstraint=eastwest;whiteSpace=wrap;html=1;fontSize=16;" vertex="1" parent="wPx57MHDkJV-dSgdxfSV-76">
          <mxGeometry y="104" width="200" height="26" as="geometry" />
        </mxCell>
        <mxCell id="wPx57MHDkJV-dSgdxfSV-81" value="+ remove(key)" style="text;strokeColor=none;fillColor=none;align=left;verticalAlign=top;spacingLeft=4;spacingRight=4;overflow=hidden;rotatable=0;points=[[0,0.5],[1,0.5]];portConstraint=eastwest;whiteSpace=wrap;html=1;fontSize=16;" vertex="1" parent="wPx57MHDkJV-dSgdxfSV-76">
          <mxGeometry y="130" width="200" height="26" as="geometry" />
        </mxCell>
        <mxCell id="wPx57MHDkJV-dSgdxfSV-82" value="&lt;span style=&quot;font-weight: normal;&quot;&gt;GerenteDAO&lt;/span&gt;" style="swimlane;fontStyle=1;align=center;verticalAlign=top;childLayout=stackLayout;horizontal=1;startSize=26;horizontalStack=0;resizeParent=1;resizeParentMax=0;resizeLast=0;collapsible=1;marginBottom=0;whiteSpace=wrap;html=1;fontSize=16;" vertex="1" parent="1">
          <mxGeometry x="440" y="180" width="200" height="156" as="geometry" />
        </mxCell>
        <mxCell id="wPx57MHDkJV-dSgdxfSV-83" value="+ __init__()" style="text;strokeColor=none;fillColor=none;align=left;verticalAlign=top;spacingLeft=4;spacingRight=4;overflow=hidden;rotatable=0;points=[[0,0.5],[1,0.5]];portConstraint=eastwest;whiteSpace=wrap;html=1;fontSize=16;" vertex="1" parent="wPx57MHDkJV-dSgdxfSV-82">
          <mxGeometry y="26" width="200" height="26" as="geometry" />
        </mxCell>
        <mxCell id="wPx57MHDkJV-dSgdxfSV-84" value="+ add(gerente)" style="text;strokeColor=none;fillColor=none;align=left;verticalAlign=top;spacingLeft=4;spacingRight=4;overflow=hidden;rotatable=0;points=[[0,0.5],[1,0.5]];portConstraint=eastwest;whiteSpace=wrap;html=1;fontSize=16;" vertex="1" parent="wPx57MHDkJV-dSgdxfSV-82">
          <mxGeometry y="52" width="200" height="26" as="geometry" />
        </mxCell>
        <mxCell id="wPx57MHDkJV-dSgdxfSV-85" value="+ update(gerente)&lt;br&gt;" style="text;strokeColor=none;fillColor=none;align=left;verticalAlign=top;spacingLeft=4;spacingRight=4;overflow=hidden;rotatable=0;points=[[0,0.5],[1,0.5]];portConstraint=eastwest;whiteSpace=wrap;html=1;fontSize=16;" vertex="1" parent="wPx57MHDkJV-dSgdxfSV-82">
          <mxGeometry y="78" width="200" height="26" as="geometry" />
        </mxCell>
        <mxCell id="wPx57MHDkJV-dSgdxfSV-86" value="+ get(key)" style="text;strokeColor=none;fillColor=none;align=left;verticalAlign=top;spacingLeft=4;spacingRight=4;overflow=hidden;rotatable=0;points=[[0,0.5],[1,0.5]];portConstraint=eastwest;whiteSpace=wrap;html=1;fontSize=16;" vertex="1" parent="wPx57MHDkJV-dSgdxfSV-82">
          <mxGeometry y="104" width="200" height="26" as="geometry" />
        </mxCell>
        <mxCell id="wPx57MHDkJV-dSgdxfSV-87" value="+ remove(key)" style="text;strokeColor=none;fillColor=none;align=left;verticalAlign=top;spacingLeft=4;spacingRight=4;overflow=hidden;rotatable=0;points=[[0,0.5],[1,0.5]];portConstraint=eastwest;whiteSpace=wrap;html=1;fontSize=16;" vertex="1" parent="wPx57MHDkJV-dSgdxfSV-82">
          <mxGeometry y="130" width="200" height="26" as="geometry" />
        </mxCell>
        <mxCell id="wPx57MHDkJV-dSgdxfSV-88" value="Extends" style="endArrow=block;endSize=16;endFill=0;html=1;rounded=0;fontSize=12;curved=1;" edge="1" parent="1">
          <mxGeometry width="160" relative="1" as="geometry">
            <mxPoint x="-80" y="260" as="sourcePoint" />
            <mxPoint x="80" y="260" as="targetPoint" />
          </mxGeometry>
        </mxCell>
        <mxCell id="wPx57MHDkJV-dSgdxfSV-90" value="Extends" style="endArrow=block;endSize=16;endFill=0;html=1;rounded=0;fontSize=12;curved=1;" edge="1" parent="1">
          <mxGeometry width="160" relative="1" as="geometry">
            <mxPoint x="440" y="257.5" as="sourcePoint" />
            <mxPoint x="280" y="257.5" as="targetPoint" />
            <mxPoint as="offset" />
          </mxGeometry>
        </mxCell>
        <mxCell id="wPx57MHDkJV-dSgdxfSV-91" value="Extends" style="endArrow=block;endSize=16;endFill=0;html=1;rounded=0;fontSize=12;curved=1;exitX=0.5;exitY=0;exitDx=0;exitDy=0;entryX=0.502;entryY=0.979;entryDx=0;entryDy=0;entryPerimeter=0;" edge="1" parent="1" source="wPx57MHDkJV-dSgdxfSV-70" target="wPx57MHDkJV-dSgdxfSV-2">
          <mxGeometry width="160" relative="1" as="geometry">
            <mxPoint x="310" y="287.5" as="sourcePoint" />
            <mxPoint x="470" y="287.5" as="targetPoint" />
          </mxGeometry>
        </mxCell>
        <mxCell id="wPx57MHDkJV-dSgdxfSV-92" value="Extends" style="endArrow=block;endSize=16;endFill=0;html=1;rounded=0;fontSize=12;curved=1;entryX=0;entryY=0.5;entryDx=0;entryDy=0;" edge="1" parent="1" target="wPx57MHDkJV-dSgdxfSV-2">
          <mxGeometry width="160" relative="1" as="geometry">
            <mxPoint x="-180" y="469" as="sourcePoint" />
            <mxPoint x="-20" y="469" as="targetPoint" />
            <Array as="points">
              <mxPoint x="-150" y="380" />
            </Array>
          </mxGeometry>
        </mxCell>
        <mxCell id="wPx57MHDkJV-dSgdxfSV-93" value="Extends" style="endArrow=block;endSize=16;endFill=0;html=1;rounded=0;fontSize=12;curved=1;exitX=0.5;exitY=0;exitDx=0;exitDy=0;entryX=1;entryY=0.5;entryDx=0;entryDy=0;" edge="1" parent="1" source="wPx57MHDkJV-dSgdxfSV-76" target="wPx57MHDkJV-dSgdxfSV-2">
          <mxGeometry width="160" relative="1" as="geometry">
            <mxPoint x="330" y="307.5" as="sourcePoint" />
            <mxPoint x="490" y="307.5" as="targetPoint" />
            <Array as="points">
              <mxPoint x="480" y="380" />
            </Array>
          </mxGeometry>
        </mxCell>
      </root>
    </mxGraphModel>
  </diagram>
</mxfile>
